<?xml version="1.0" encoding="UTF-8"?>
<!DOCTYPE svg PUBLIC "-//W3C//DTD SVG 1.1//EN" "http://www.w3.org/Graphics/SVG/1.1/DTD/svg11.dtd">
<!-- Creator: CorelDRAW 2019 (64 Bit) -->
<svg xmlns="http://www.w3.org/2000/svg" xml:space="preserve" width="137px" height="193px" version="1.1" style="shape-rendering:geometricPrecision; text-rendering:geometricPrecision; image-rendering:optimizeQuality; fill-rule:evenodd; clip-rule:evenodd"
viewBox="0 0 46.174 65.08"
 xmlns:xlink="http://www.w3.org/1999/xlink">
 <defs>
  <style type="text/css">
   <![CDATA[
    .fil0 {fill:white}
   ]]>
  </style>
 </defs>
 <g id="Camada_x0020_1">
  <metadata id="CorelCorpID_0Corel-Layer"/>
  <path class="fil0" d="M7.106 30.596c0.537,-3.354 4.943,-7.512 8.177,-9.363 6.731,-3.853 18.112,-5.631 25.105,-9.992 2.734,-1.705 7.884,-6.835 4.868,-11.241 -0.536,0.209 -1.461,1.142 -2.064,1.549 -1.967,1.327 -4.824,2.654 -6.816,3.343 -8.258,2.859 -23.888,7.744 -28.631,12.84 -4.251,4.566 -4.869,9.957 -4.892,15.933 -0.011,2.896 -0.955,2.862 -1.534,5.36 -1.742,7.521 -1.311,17.461 -1.159,26.055l6.703 -0.006c0.381,-11.853 -2.277,-24.918 7.557,-29.822 4.323,-2.156 10.071,-2.667 13.814,-5.133 2.454,-1.616 8.18,-7.883 5.545,-12.326 -1.134,0.406 -1.772,1.516 -2.81,2.247 -0.959,0.675 -1.964,1.312 -3.154,1.904 -2.43,1.208 -4.425,1.841 -6.889,2.85 -2.368,0.971 -4.899,1.542 -7.262,2.525 -3.793,1.578 -5.318,2.76 -6.558,3.277z"/>
 </g>
</svg>
