<?xml version="1.0" encoding="UTF-8"?>
<!DOCTYPE svg PUBLIC "-//W3C//DTD SVG 1.1//EN" "http://www.w3.org/Graphics/SVG/1.1/DTD/svg11.dtd">
<!-- Creator: CorelDRAW 2019 (64 Bit) -->
<svg xmlns="http://www.w3.org/2000/svg" xml:space="preserve" width="626px" height="195px" version="1.1" style="shape-rendering:geometricPrecision; text-rendering:geometricPrecision; image-rendering:optimizeQuality; fill-rule:evenodd; clip-rule:evenodd"
viewBox="0 0 707.755 220.019"
 xmlns:xlink="http://www.w3.org/1999/xlink">
 <defs>
  <style type="text/css">
   <![CDATA[
    .fil0 {fill:white}
   ]]>
  </style>
 </defs>
 <g id="Camada_x0020_1">
  <metadata id="CorelCorpID_0Corel-Layer"/>
  <path class="fil0" d="M566.353 102.526c1.798,-11.24 16.563,-25.173 27.402,-31.377 22.555,-12.91 60.692,-18.866 84.125,-33.481 9.161,-5.713 26.417,-22.903 16.311,-37.668 -1.796,0.699 -4.894,3.825 -6.917,5.19 -6.589,4.446 -16.163,8.893 -22.839,11.204 -27.671,9.581 -80.047,25.95 -95.942,43.024 -14.244,15.301 -16.315,33.367 -16.391,53.394 -0.038,9.704 -3.2,9.589 -5.14,17.961 -5.84,25.202 -4.395,58.509 -3.886,87.307l22.463 -0.019c1.278,-39.718 -7.63,-83.501 25.323,-99.934 14.484,-7.223 33.748,-8.936 46.291,-17.198 8.221,-5.416 27.411,-26.418 18.579,-41.306 -3.8,1.362 -5.938,5.081 -9.417,7.53 -3.212,2.261 -6.581,4.396 -10.567,6.379 -8.143,4.05 -14.83,6.17 -23.086,9.553 -7.934,3.251 -16.415,5.165 -24.332,8.459 -12.713,5.29 -17.822,9.251 -21.977,10.982zm-245.187 36.098c17.088,-5.677 32.329,5.821 36.155,21.415 4.587,18.693 -5.25,34.245 -19.624,38.274 -38.634,10.827 -53.626,-47.369 -16.531,-59.689zm36.642 -9.254c-5.392,-1.481 -7.277,-8.937 -24.545,-11.207 -30.522,-4.012 -57.532,16.485 -56.525,52.281 0.643,22.865 12.547,37.943 27.955,44.686 32.856,14.38 51.395,-7.498 54.103,-7.934l-0.049 10.813 22.353 -0.055 -0.015 -138.203 -23.203 0 -0.074 49.619zm56.755 30.736c0.128,-6.791 4.146,-13.006 8.198,-16.779 13.593,-12.659 44.84,-7.304 46.11,16.967l-54.308 -0.188zm69.265 43.126c-2.875,-5.969 -11.025,-8.664 -18.958,-7.407 -9.045,1.432 -8.852,4.269 -21.839,3.749 -14.717,-0.589 -27.676,-10.075 -28.394,-23.487 13.639,-0.282 67.728,1.67 76.255,-0.773 7.58,-63.035 -72.919,-77.663 -95.564,-26.504 -11.646,26.31 0.722,52.759 19.639,63.299 24.713,13.771 62.317,6.351 68.861,-8.877zm200.513 -27.385c0.538,13.28 -0.91,18.133 -10.788,23.592 -7.963,4.402 -21.239,4.244 -27.76,-1.002 -8.333,-6.705 -4.925,-18.832 5.412,-21.527 7.675,-2.002 24.091,-1.219 33.136,-1.063zm-62.186 -46.138c0.874,5.26 7.796,9.828 14.482,10.532 6.364,0.671 13.921,-2.887 22.507,-3.021 15.118,-0.236 26.831,6.522 25.218,22.237 -12.639,2.662 -73.792,-8.296 -65.038,36.907 2.503,12.931 14.404,20.793 28.665,22.801 16.94,2.383 29.16,-2.566 37.875,-11.964l-0.01 10.808 21.901 0 -0.031 -49.843c0.139,-64.355 -67.151,-55.22 -85.569,-38.457zm-378.945 46.126c5.159,25.759 -27.027,32.992 -39.089,21.942 -7.775,-7.122 -3.546,-18.287 5.184,-20.979 5.374,-1.658 27.766,-1.903 33.905,-0.963zm-62.118 -46.126c1.227,5.116 6.349,9.105 13.378,10.318 6.6,1.14 15.202,-2.364 22.353,-2.748 15.698,-0.842 28.144,6.139 26.477,22.301 -14.457,2.336 -72.515,-8.124 -65.325,36.719 4.457,27.799 56.336,29.687 66.616,10.967l0.476 10.725 21.574 0.269c0.431,-16.668 0.056,-33.534 0.153,-50.094 0.374,-64.235 -67.882,-54.919 -85.702,-38.457zm-123.737 -29.236c19.659,-0.854 37.934,2.203 38.205,-20.214l-62.961 -0.508 0 51.363 -32.599 0.138 0 20.506 32.599 0 0 66.251 24.756 0 0 -66.251 32.193 0 0 -20.293 -32.193 -0.351 0 -30.641zm87.169 117.536l23.737 0 0 -138.258 -23.737 0 0 138.258zm358.258 0l22.893 0 0 -138.258 -22.893 0 0 138.258zm-395.336 0l23.156 0 0 -86.895 -23.156 0 0 86.895zm497.688 -66.251l-22.996 0 0.153 66.251 22.974 0 -0.131 -66.251zm-178.265 -46.788c20.375,1.068 17.848,1.254 28.966,-7.791 3.929,-3.198 17.802,-12.95 19.222,-17.428 -18.99,-1.171 -23.32,-1.819 -30.6,6.087 -3.201,3.477 -15.797,14.537 -17.588,19.132zm163.059 21.982c-13.849,4.586 -6.947,24.832 7.666,20.439 13.178,-3.961 8.355,-25.746 -7.666,-20.439zm-475.447 -29.64c-14.717,5.996 -3.815,25.585 9.879,19.107 11.014,-5.21 5.71,-25.46 -9.879,-19.107z"/>
 </g>
</svg>
